<svg width="348" height="181" viewBox="0 0 348 181" fill="none" xmlns="http://www.w3.org/2000/svg">
<g clip-path="url(#clip0_160_1731)">
<rect width="348" height="181" rx="8" fill="#FFDFD5"/>
<path fill-rule="evenodd" clip-rule="evenodd" d="M352.092 38.416C349.508 35.9299 347.872 32.5213 347.872 28.9359C347.872 0.80476 325.067 -22 296.936 -22C268.805 -22 246 0.80476 246 28.9359C246 57.067 268.805 79.8717 296.936 79.8717C300.521 79.8717 303.93 81.5083 306.416 84.0919C312.293 90.1996 320.551 94 329.696 94C347.537 94 362 79.5371 362 61.6962C362 52.5508 358.2 44.293 352.092 38.416Z" fill="#FFC1AD"/>
<path fill-rule="evenodd" clip-rule="evenodd" d="M134.574 155.848C124.882 163.73 117.212 174.925 114.864 187.195C106.577 230.51 64.7443 258.905 21.4291 250.618C-21.8861 242.33 -50.2816 200.498 -41.994 157.183C-36.971 130.93 -19.6254 110.157 2.90436 99.7114C23.7363 90.0525 44.7538 74.6176 63.6198 61.5282C76.204 52.7972 92.1543 48.9376 108.386 52.0433C140.421 58.1727 161.422 89.1111 155.293 121.146C152.575 135.351 144.98 147.386 134.574 155.848Z" fill="#FFB49C"/>
</g>
<defs>
<clipPath id="clip0_160_1731">
<rect width="348" height="181" rx="8" fill="white"/>
</clipPath>
</defs>
</svg>
