<svg width="348" height="181" viewBox="0 0 348 181" fill="none" xmlns="http://www.w3.org/2000/svg">
<g clip-path="url(#clip0_160_1735)">
<rect width="348" height="181" rx="8" fill="#FFDFD5"/>
<path fill-rule="evenodd" clip-rule="evenodd" d="M127.092 101.416C124.508 98.9299 122.872 95.5213 122.872 91.9359C122.872 63.8048 100.067 41 71.9359 41C43.8048 41 21 63.8048 21 91.9359C21 120.067 43.8048 142.872 71.9359 142.872C75.5213 142.872 78.9299 144.508 81.416 147.092C87.293 153.2 95.5508 157 104.696 157C122.537 157 137 142.537 137 124.696C137 115.551 133.2 107.293 127.092 101.416Z" fill="#FFC1AD"/>
<path fill-rule="evenodd" clip-rule="evenodd" d="M209.176 96.5024C217.214 86.9394 222.644 74.5032 222.644 62.0107C222.644 17.9098 258.395 -17.8411 302.496 -17.8411C346.597 -17.8411 382.348 17.9098 382.348 62.0107C382.348 88.7399 369.215 112.402 349.049 126.896C330.404 140.297 312.661 159.407 296.591 175.808C285.872 186.749 270.931 193.537 254.405 193.537C221.788 193.537 195.348 167.096 195.348 134.48C195.348 120.018 200.546 106.77 209.176 96.5024Z" fill="#FFB49C"/>
</g>
<defs>
<clipPath id="clip0_160_1735">
<rect width="348" height="181" rx="8" fill="white"/>
</clipPath>
</defs>
</svg>
