<svg width="79" height="79" viewBox="0 0 79 79" fill="none" xmlns="http://www.w3.org/2000/svg">
<g clip-path="url(#clip0_127_593)">
<path d="M52.4674 3.04093C52.4674 1.36296 54.1261 0 56.1769 0C58.2278 0 59.8865 1.36296 59.8865 3.04093V16.3619C59.8865 18.0399 58.2278 19.4028 56.1769 19.4028C54.1261 19.4028 52.4674 18.0399 52.4674 16.3619V3.04093ZM19.0364 3.04093C19.0364 1.36296 20.6951 0 22.7459 0C24.7968 0 26.4555 1.36296 26.4555 3.04093V16.3619C26.4555 18.0399 24.7968 19.4028 22.7459 19.4028C20.6951 19.4028 19.0364 18.0399 19.0364 16.3619V3.04093ZM26.3526 54.3639C25.5361 53.5796 25.5104 52.2809 26.2948 51.4644C27.0791 50.648 28.3778 50.6222 29.1943 51.4066L35.559 57.5592L49.7157 42.3995C50.4872 41.5701 51.7859 41.5252 52.6152 42.2966C53.4446 43.0681 53.4896 44.3668 52.7181 45.1961L37.1405 61.8859L37.1148 61.9116C36.3305 62.7281 35.0318 62.7538 34.2153 61.9695L26.3526 54.3639ZM4.11458 29.1364H74.8854V13.8031C74.8854 13.2888 74.6733 12.8195 74.3325 12.4723C73.9918 12.1316 73.5225 11.9194 73.0017 11.9194H66.2191C65.0811 11.9194 64.1618 11.0001 64.1618 9.86214C64.1618 8.7242 65.0811 7.80485 66.2191 7.80485H73.0017C74.654 7.80485 76.1519 8.4799 77.2384 9.56641C78.325 10.6529 79 12.1509 79 13.8031V31.2001V73.0081C79 74.6604 78.325 76.1584 77.2384 77.2449C76.1519 78.3314 74.654 79.0064 73.0017 79.0064H5.99829C4.34603 79.0064 2.84806 78.3314 1.76156 77.2449C0.675049 76.1519 0 74.654 0 73.0017V31.2001V13.8031C0 12.1509 0.675049 10.6529 1.76156 9.56641C2.84806 8.4799 4.34603 7.80485 5.99829 7.80485H13.2438C14.3818 7.80485 15.3011 8.7242 15.3011 9.86214C15.3011 11.0001 14.3818 11.9194 13.2438 11.9194H5.99829C5.48397 11.9194 5.01465 12.1316 4.66748 12.4723C4.32674 12.8131 4.11458 13.2824 4.11458 13.8031V29.1364ZM74.8854 33.2574H4.11458V73.0017C4.11458 73.516 4.32674 73.9854 4.66748 74.3325C5.00822 74.6733 5.47754 74.8854 5.99829 74.8854H73.0017C73.516 74.8854 73.9854 74.6733 74.3325 74.3325C74.6733 73.9918 74.8854 73.5225 74.8854 73.0017V33.2574ZM32.4216 11.9194C31.2837 11.9194 30.3643 11.0001 30.3643 9.86214C30.3643 8.7242 31.2837 7.80485 32.4216 7.80485H46.2376C47.3756 7.80485 48.2949 8.7242 48.2949 9.86214C48.2949 11.0001 47.3756 11.9194 46.2376 11.9194H32.4216Z" fill="#050505"/>
</g>
<defs>
<clipPath id="clip0_127_593">
<rect width="79" height="79" fill="white"/>
</clipPath>
</defs>
</svg>
