<svg width="79" height="79" viewBox="0 0 79 79" fill="none" xmlns="http://www.w3.org/2000/svg">
<path d="M14.2825 4.87737C15.1536 4.27027 16.0466 3.91924 16.9737 3.73718C17.8596 3.56297 18.7783 3.54791 19.7433 3.60751L19.7427 3.60096C20.7417 3.66121 21.8553 3.89763 23.0523 4.15108C24.4584 4.44906 25.9962 4.77455 27.4466 4.79158C28.5267 4.80468 29.8086 4.05874 31.1568 3.27481C34.0132 1.61265 37.0953 -0.179829 41.334 2.0259C44.8963 3.87667 46.4226 6.06865 47.9186 8.22068L48.0311 8.38244C48.6894 9.3242 49.3626 10.1913 50.2652 10.9896C50.6156 11.2987 51.0058 11.6039 51.4507 11.9058L49.0514 14.6558C48.7197 14.405 48.4091 14.1502 48.1166 13.8915C46.8925 12.8083 46.022 11.6943 45.1875 10.4998L45.0705 10.3314C43.8812 8.62083 42.6699 6.87812 40.0289 5.50608C37.5267 4.20413 35.2566 5.52442 33.1524 6.74845C31.4069 7.76355 29.7469 8.72954 27.7938 8.70531C26.0322 8.68566 24.2983 8.31826 22.7135 7.98229C21.6733 7.76224 20.7064 7.55726 19.9233 7.5101V7.5029H19.9175C19.2425 7.46164 18.6034 7.47081 17.9972 7.59C17.4527 7.69741 16.9364 7.89912 16.4459 8.24622C16.4066 8.27373 16.3668 8.29992 16.325 8.32416C15.8023 8.6241 15.3979 9.0105 15.0655 9.465C14.7068 9.95488 14.4188 10.5436 14.1546 11.1985L14.1507 11.1966L14.1488 11.2025C13.8601 11.915 13.6171 12.9092 13.3561 13.9767C12.9658 15.5733 12.5389 17.318 11.7925 18.9389C10.9651 20.7419 9.38999 21.8454 7.73386 23.0052C5.737 24.4041 3.58327 25.9137 3.64756 28.775C3.71314 31.7745 4.72057 33.639 5.70936 35.4675L5.82251 35.6771C6.5162 36.9613 7.1231 38.2436 7.54871 39.8383C7.97045 41.4186 8.19868 43.2517 8.12796 45.61L8.12346 45.6094C8.0296 48.859 8.27647 51.2979 8.96117 53.1323C9.56421 54.7473 10.5652 55.9249 12.0503 56.8476C12.0915 56.8732 12.1333 56.898 12.1757 56.9229L9.75258 59.7004C7.81808 58.3238 6.46413 56.5752 5.59363 54.2431C4.7 51.8494 4.37212 48.8879 4.4827 45.0822V45.0763L4.4782 45.0756C4.53477 43.1666 4.36505 41.7376 4.04809 40.5496C3.73436 39.3747 3.25989 38.3799 2.71342 37.3674L2.60027 37.1578C1.35818 34.8597 0.0916593 32.5158 0.00293848 28.4606C-0.105712 23.613 2.81822 21.5644 5.5287 19.6659C6.80808 18.7699 8.02446 17.9173 8.48156 16.9211C9.09554 15.5871 9.47421 14.0395 9.82073 12.6236C10.1133 11.4271 10.3858 10.3131 10.7806 9.3373L10.7774 9.33533C11.1406 8.43745 11.5534 7.60441 12.1043 6.85192C12.6694 6.08044 13.3676 5.41309 14.2825 4.87737ZM35.0252 33.2578C35.4835 33.749 35.4649 34.5257 34.9827 34.992C34.5005 35.459 33.7381 35.44 33.2797 34.9488L22.5734 23.5141C22.115 23.0229 22.1336 22.2462 22.6158 21.7792C23.098 21.3123 23.8605 21.3319 24.3189 21.8225L35.0252 33.2578ZM28.0979 39.9372C28.564 40.4206 28.5575 41.1973 28.0837 41.6721C27.6099 42.1475 26.8474 42.141 26.3813 41.6583L18.8272 33.8014C18.3611 33.3187 18.3669 32.542 18.8413 32.0665C19.3151 31.5917 20.0776 31.5983 20.5437 32.081L28.0979 39.9372ZM42.9457 25.9228C43.4144 26.4029 43.4125 27.1796 42.9406 27.6577C42.4693 28.1351 41.7069 28.1332 41.2382 27.6531L34.8458 21.0844C34.3771 20.6043 34.379 19.827 34.8503 19.3495C35.3215 18.8721 36.0847 18.8741 36.5533 19.3541L42.9457 25.9228ZM27.4562 60.8439L30.015 63.4511L30.0124 63.4543C30.0356 63.4773 30.0574 63.5008 30.078 63.5257L33.4886 67L68.1977 31.6435L64.719 28.0998L62.1602 25.4926L58.8538 22.125L24.1453 57.4829L27.3489 60.7463C27.3862 60.7764 27.4215 60.8098 27.4562 60.8439ZM29.3207 66.666L24.5053 74.8812C22.8891 77.4982 20.698 78.2684 18.6665 77.9219C17.4404 77.713 16.2948 77.0764 15.3941 76.1877C14.5043 75.3088 13.8421 74.1654 13.5714 72.9276C13.1137 70.8378 13.7322 68.5397 16.1566 66.8297L16.226 66.7819L24.3292 61.5826L22.0623 59.2741L22.0648 59.2714C21.5782 58.7744 21.3352 58.1267 21.3352 57.4835C21.3352 56.8358 21.5775 56.1868 22.0623 55.693L57.0967 20.0051C57.5808 19.5113 58.2179 19.2644 58.8544 19.2644C59.4902 19.2644 60.1274 19.5113 60.6121 20.0051L62.8796 22.315L67.9875 14.0539L68.0351 13.9832C69.7124 11.5129 71.9684 10.8835 74.0205 11.3498C75.2356 11.6255 76.3581 12.3001 77.2209 13.2065C78.0933 14.1234 78.7176 15.2904 78.9233 16.5393C79.2634 18.6082 78.508 20.8401 75.9383 22.4872L67.8673 27.3964L70.2782 29.8523C70.7597 30.3422 70.9995 30.9918 71.0002 31.6428H71.0053C71.0053 32.2912 70.7629 32.9402 70.2782 33.434L35.2457 69.1206L35.2431 69.1173L35.2405 69.1206C34.7558 69.6137 34.1206 69.8613 33.488 69.8613C32.8991 69.8613 32.3089 69.6471 31.8396 69.2201C31.8016 69.1894 31.765 69.1553 31.7303 69.1206L29.3207 66.666ZM69.8674 43.2419C70.2158 44.0966 70.4743 44.9853 70.6028 45.9198C70.8613 47.8263 70.7835 49.6017 70.3778 51.2501C69.9722 52.8998 69.2418 54.4061 68.1964 55.7729C67.225 57.0434 66.0402 57.6715 64.9151 58.2688C64.1211 58.6905 63.367 59.09 63.0519 59.5956C62.2264 60.9126 61.7449 62.6475 61.2923 64.2808C60.751 66.2318 60.2431 68.061 59.172 69.4297L59.1103 69.5037C58.7303 69.9792 58.3349 70.4055 57.9235 70.7814C57.5017 71.1672 57.0331 71.5241 56.5168 71.8509C55.9999 72.1856 55.4772 72.4652 54.9488 72.6866C54.3946 72.9197 53.8134 73.1064 53.2078 73.2446C53.1692 73.2531 53.1313 73.2596 53.0927 73.2662C51.2797 73.6185 48.8637 72.6493 46.312 71.6256C46.0143 71.5064 45.7141 71.3866 45.4151 71.268L48.0228 68.279C49.7657 68.9719 51.3299 69.5476 52.0448 69.4225L52.0968 69.4094C52.5237 69.3125 52.9281 69.1828 53.3094 69.023C53.7163 68.8521 54.0821 68.6609 54.4068 68.4506L54.4184 68.4428C54.7417 68.2384 55.0683 67.9856 55.3969 67.685C55.6997 67.408 55.9781 67.1107 56.2333 66.7937L56.2751 66.7374C56.9296 65.9017 57.3436 64.4085 57.7853 62.8165C58.3047 60.946 58.8557 58.9577 59.9615 57.1947C60.7465 55.936 61.8555 55.3479 63.0262 54.7264C63.8633 54.2823 64.7447 53.8147 65.2854 53.1081C66.0363 52.1264 66.5577 51.0563 66.8431 49.8964C67.1016 48.846 67.1691 47.7077 67.0418 46.4798L69.8674 43.2419Z" fill="black"/>
</svg>
