<svg width="79" height="79" viewBox="0 0 79 79" fill="none" xmlns="http://www.w3.org/2000/svg">
<path fill-rule="evenodd" clip-rule="evenodd" d="M39.4991 7L43.2794 10.0695L48.0883 9.2973L49.8177 13.8533L54.3695 15.5843L53.598 20.3977L56.6646 24.1815L53.598 27.9653L54.3695 32.7786L49.8177 34.5097L48.0883 39.0656L43.2794 38.2934L39.4991 41.3629L35.7188 38.2934L30.9099 39.0656L29.1805 34.5097L24.6288 32.7786L25.4002 27.9653L22.3336 24.1815L25.4002 20.3977L24.6288 15.5843L29.1805 13.8533L30.9099 9.2973L35.7188 10.0695L39.4991 7ZM42.6943 61.556H56.7804C57.9119 60.4299 59.1527 59.2587 60.4063 58.0682C63.0487 55.565 65.8067 52.9524 68.6419 49.6834C71.8822 45.9447 72.2293 44.6512 73.213 40.9897C73.3994 40.3012 73.6051 39.529 73.8752 38.5701L75.5596 32.6435L75.5789 32.5791C76.4789 29.9408 76.5496 28.1969 76.1768 27.193C76.061 26.8842 75.9132 26.6782 75.7396 26.5689C75.6046 26.4788 75.4246 26.4466 75.2381 26.4659C74.8009 26.5109 74.3059 26.7876 73.8559 27.2831L68.8541 39.2072C68.8091 39.3166 68.7448 39.4196 68.6741 39.5097C68.3783 40.0438 67.9797 40.565 67.4654 41.0605L58.5933 50.964C58.1112 51.5045 57.2818 51.5495 56.7482 51.0669C56.2082 50.5843 56.1632 49.7542 56.6454 49.2201C57.8476 47.8816 67.1697 38.7246 66.6939 36.6718C66.1025 34.1429 59.7506 40.6358 58.992 41.305L58.9727 41.3243C55.2503 44.8507 53.6494 45.6873 50.7306 47.2124C50.1199 47.5341 49.4513 47.8816 48.6219 48.332C48.294 48.5122 47.9726 48.731 47.6576 48.9691C47.3232 49.2265 47.0018 49.4903 46.6996 49.7477C45.1567 51.0476 44.3466 52.103 43.8837 53.2677C43.4015 54.4775 43.228 55.9511 42.9901 57.9717C42.8936 58.7825 42.8229 59.5933 42.7651 60.3977C42.7329 60.7902 42.7136 61.1763 42.6943 61.556ZM36.3039 61.556H22.2114C21.0799 60.4299 19.8391 59.2587 18.579 58.0682C15.9367 55.565 13.1786 52.9524 10.3434 49.6834C7.1032 45.9447 6.75603 44.6512 5.77239 40.9897C5.58594 40.3012 5.38021 39.529 5.11019 38.5701L3.42579 32.6435L3.4065 32.5791C2.50644 29.9408 2.43572 28.1969 2.8086 27.193C2.92432 26.8842 3.07219 26.6782 3.24577 26.5689C3.38078 26.4788 3.5608 26.4466 3.74724 26.4659C4.18441 26.5109 4.67945 26.7876 5.12948 27.2831L10.1313 39.2072C10.1763 39.3166 10.2406 39.4196 10.3113 39.5097C10.607 40.0438 11.0056 40.565 11.5199 41.0605L20.392 50.964C20.8742 51.5045 21.7035 51.5495 22.2371 51.0669C22.7772 50.5843 22.8222 49.7542 22.34 49.2201C21.1506 47.8752 11.8285 38.7181 12.3043 36.6654C12.8958 34.1364 19.2476 40.6293 20.0063 41.2986L20.0256 41.3179C23.748 44.8443 25.3488 45.6808 28.2676 47.2059C28.8783 47.5277 29.547 47.8752 30.3763 48.3256C30.7042 48.5058 31.0256 48.7246 31.3407 48.9627C31.675 49.2201 31.9964 49.4839 32.2986 49.7413C33.8416 51.0412 34.6516 52.0965 35.1145 53.2613C35.5967 54.471 35.7703 55.9447 36.0081 57.9652C36.1046 58.7761 36.1753 59.5869 36.2332 60.3912C36.2653 60.7902 36.2846 61.1763 36.3039 61.556ZM18.9326 62.0064C18.7333 62.2381 18.6112 62.5405 18.6112 62.8687V70.6808C18.6112 71.408 19.2026 71.9936 19.9227 71.9936H37.654C38.3805 71.9936 38.9655 71.4015 38.9655 70.6808V62.7979C38.9655 61.9614 38.9141 61.0605 38.8562 60.2239C38.7983 59.3681 38.7212 58.5187 38.6248 57.6757C38.3676 55.4685 38.1747 53.8533 37.5575 52.3024C36.9211 50.713 35.8988 49.3423 34.0023 47.74C33.6551 47.444 33.3015 47.148 32.9286 46.8713C32.5365 46.5753 32.1121 46.2921 31.6364 46.0283C30.8649 45.61 30.1449 45.2304 29.4891 44.8829C26.7889 43.4672 25.3102 42.695 21.8321 39.4003C21.8064 39.3745 21.7743 39.3488 21.7485 39.3295L18.3926 36.3629C16.6953 34.3745 13.3329 32.0064 10.8835 34.1557C9.57837 31.0476 8.29257 24.2716 4.02369 23.8533C3.24577 23.7761 2.49358 23.9434 1.83782 24.3681C1.2142 24.7735 0.699876 25.4041 0.378424 26.2728C-0.187331 27.7851 -0.174473 30.1338 0.931322 33.3835L2.60287 39.2716C2.84717 40.121 3.05933 40.9382 3.25863 41.6589C4.35157 45.7452 4.73731 47.1931 8.38258 51.3887C11.2692 54.7156 14.098 57.3925 16.8046 59.9601C17.5054 60.6422 18.2126 61.3179 18.9326 62.0064ZM21.4399 64.1815C21.6135 64.2201 21.7935 64.2201 21.9736 64.1815H36.336V69.3681H21.2342V64.1815H21.4399ZM60.0656 62.0064C60.2649 62.2381 60.3871 62.5405 60.3871 62.8687V70.6808C60.3871 71.408 59.802 71.9936 59.0755 71.9936H41.3507C40.6242 71.9936 40.0392 71.4015 40.0392 70.6808V62.7979C40.0392 62.7529 40.0392 62.7014 40.0456 62.6564C40.0649 61.8134 40.097 60.9961 40.1484 60.2239C40.2063 59.3681 40.2835 58.5187 40.3799 57.6757C40.6371 55.4685 40.8299 53.8533 41.4471 52.3024C42.0836 50.713 43.1058 49.3423 45.0024 47.74C45.3495 47.444 45.7031 47.148 46.076 46.8713C46.4682 46.5753 46.8925 46.2921 47.3683 46.0283C48.1397 45.61 48.8598 45.2304 49.5155 44.8829C52.2157 43.4672 53.6944 42.695 57.1725 39.4003C57.1982 39.3745 57.2304 39.3488 57.2561 39.3295L60.6121 36.3629C62.3093 34.3745 65.6717 32.0064 68.1212 34.1557C68.7577 32.6306 70.9564 26.6589 71.715 25.7452C72.6537 24.619 73.843 23.9627 74.981 23.8468C75.7589 23.7696 76.5111 23.9369 77.1668 24.3616C77.7905 24.7671 78.3048 25.3977 78.6262 26.2664C79.192 27.7786 79.1791 30.1274 78.0733 33.3771L76.4018 39.2651C76.1575 40.1145 75.9453 40.9318 75.746 41.6525C74.6531 45.7387 74.2673 47.1866 70.6221 51.3822C67.7354 54.7091 64.9131 57.3861 62.2 59.9537C61.4928 60.6422 60.7856 61.3179 60.0656 62.0064ZM57.5583 64.1815C57.3847 64.2201 57.2047 64.2201 57.0247 64.1815H42.6622V69.3681H57.764V64.1815H57.5583ZM39.4991 18.0553L41.2671 22.3797L45.9282 22.7272L42.3665 25.7452L43.4787 30.2883L39.5055 27.8237L35.5324 30.2883L36.6446 25.7516L33.0701 22.7336L37.7311 22.3861L39.4991 18.0618V18.0553ZM39.4991 14.471C44.8545 14.471 49.1941 18.8211 49.1941 24.175C49.1941 29.5354 44.8481 33.879 39.4991 33.879C34.1437 33.879 29.8041 29.529 29.8041 24.175C29.8041 18.8211 34.1437 14.471 39.4991 14.471Z" fill="black"/>
</svg>
